Coordinates
version=1
nRows=16
nColumns=36
inDegrees=yes

Units are S.I. units (second, meters, Newtons, ...)
If the header above contains a line with 'inDegrees', this indicates whether rotational values are in degrees (yes) or radians (no).

endheader
time	pelvis_tilt	pelvis_list	pelvis_rotation	pelvis_tx	pelvis_ty	pelvis_tz	hip_flexion_r	hip_adduction_r	hip_rotation_r	knee_angle_r	knee_angle_r_beta	ankle_angle_r	subtalar_angle_r	mtp_angle_r	hip_flexion_l	hip_adduction_l	hip_rotation_l	knee_angle_l	knee_angle_l_beta	ankle_angle_l	subtalar_angle_l	mtp_angle_l	lumbar_extension	lumbar_bending	lumbar_rotation	arm_flex_r	arm_add_r	arm_rot_r	elbow_flex_r	pro_sup_r	arm_flex_l	arm_add_l	arm_rot_l	elbow_flex_l	pro_sup_l
      3.14000000	    -24.19338056	     -2.04505646	      1.51381829	     -0.35566854	      0.63292645	     -0.51580398	     87.36687853	      7.65238675	      2.76247246	     90.19502474	      1.57420015	     26.16966943	    -20.41238589	     -7.49999987	     89.61317883	    -26.87793000	      5.89964775	     81.43517597	      1.42131195	     19.48883165	     15.31284550	     -7.49999987	    -41.10479943	      8.31366539	      2.10392011	     72.97346274	    -16.46954229	      6.70391158	    126.60506643	     97.95156480	     67.88969364	     -4.40079297	      1.06675406	    112.66968722	    104.82553118
      3.15000000	    -24.16542272	     -2.35331691	      1.28339231	     -0.35580093	      0.63139289	     -0.51566791	     87.50965988	      7.95214729	      2.46042217	     90.35662739	      1.57702065	     26.37620203	    -20.06779472	     -7.49999987	     90.07837989	    -27.29837944	      6.28342943	     81.83031368	      1.42820840	     19.90909108	     15.61274523	     -7.49999987	    -41.54489111	      8.46285011	      2.33002716	     73.05844897	    -16.25245050	      6.44948327	    126.90099896	     97.99111897	     68.03190757	     -4.56472871	      0.93841046	    113.26540791	    104.76223717
      3.16000000	    -23.91796242	     -2.70038463	      1.12298621	     -0.35579869	      0.63034640	     -0.51532181	     87.38137600	      8.25042936	      2.11808900	     90.49984575	      1.57952028	     26.77765720	    -19.84970302	     -7.49999987	     90.34351221	    -27.72986643	      6.70836514	     82.18847819	      1.43445955	     20.17353169	     16.29545743	     -7.49999987	    -42.17232778	      8.64476830	      2.60749249	     73.18777112	    -16.19192006	      6.42466249	    127.12212194	     96.62711002	     68.29494110	     -4.69336403	      0.93870278	    113.71139081	    102.75459995
      3.17000000	    -23.83609431	     -2.57218494	      0.98976453	     -0.35599482	      0.62901551	     -0.51518412	     87.49861177	      8.37868851	      2.25597873	     90.77879278	      1.58438882	     27.27018548	    -19.72497518	     -7.49999987	     90.44981872	    -28.01086388	      6.42703777	     82.50781508	      1.44003303	     19.56377792	     15.29309082	     -7.49999987	    -42.51844930	      8.40988319	      2.42872057	     73.14800741	    -15.91014889	      6.29744643	    127.50096405	     94.75598379	     68.57793071	     -5.01862948	      0.98386914	    113.99847361	    100.44489253
      3.18000000	    -23.80521122	     -2.47348036	      0.91778411	     -0.35638142	      0.62750921	     -0.51550966	     87.73531272	      8.33912553	      2.29696388	     91.13674688	      1.59063630	     27.52382514	    -19.68216613	     -7.49999987	     90.60148257	    -28.11578278	      6.32253271	     82.75622422	      1.44436859	     19.22564445	     14.70619441	     -7.49999987	    -42.76232926	      8.28855399	      2.28263325	     73.18892297	    -15.75220254	      6.17065463	    127.75312279	     93.41236492	     68.87411607	     -5.17815326	      0.98818804	    114.13892092	     98.82921851
      3.19000000	    -23.88533846	     -2.93138486	      0.85573761	     -0.35651983	      0.62590467	     -0.51615043	     87.98960610	      8.32118542	      1.72875312	     91.25662800	      1.59272862	     27.01107597	    -19.57064476	     -7.49999987	     91.29319223	    -28.31314437	      7.01045138	     83.19486323	      1.45202428	     20.57744732	     16.94009280	     -7.49999987	    -42.91043072	      8.66867577	      2.69432225	     73.10561570	    -16.13779713	      5.88459804	    128.07151537	     93.26763225	     68.84866181	     -4.95304987	      1.02647116	    114.66812985	     98.51785150
      3.20000000	    -23.86150658	     -2.95401590	      0.80644264	     -0.35672731	      0.62458496	     -0.51657889	     88.15738304	      8.27297057	      1.65816662	     91.50413991	      1.59704852	     27.06877335	    -19.55814992	     -7.49999987	     91.52177556	    -28.42802185	      7.03153818	     83.48829600	      1.45714565	     20.59338041	     16.87229894	     -7.49999987	    -43.11372365	      8.62543358	      2.66423357	     73.01000603	    -16.17479070	      5.58270565	    128.34129734	     92.86272838	     69.02272148	     -4.98684655	      1.04546607	    114.95924739	     98.11301521
      3.21000000	    -23.82277832	     -3.00017545	      0.72708206	     -0.35682544	      0.62337123	     -0.51695657	     88.30748154	      8.26447423	      1.54301004	     91.76423414	      1.60158802	     27.13110863	    -19.60553208	     -7.49999987	     91.72419004	    -28.59412892	      7.08319008	     83.75314639	      1.46176816	     20.61049110	     16.91058826	     -7.49999987	    -43.27923794	      8.59445982	      2.66486080	     72.88299190	    -16.24133607	      5.35999399	    128.49231717	     92.59117821	     69.12465863	     -4.98684600	      0.96653253	    115.15819159	     97.86124773
      3.22000000	    -23.77326018	     -3.15533414	      0.67941516	     -0.35680978	      0.62230664	     -0.51750185	     88.38003124	      8.20505881	      1.35545767	     91.94295777	      1.60470734	     27.53145132	    -18.87339570	     -7.49999987	     92.01979284	    -28.81782030	      7.16880953	     84.09563878	      1.46774578	     20.92562977	     17.38630563	     -7.49999987	    -43.41887141	      8.74459110	      2.72513608	     72.78946278	    -16.26078468	      4.91904359	    128.03447142	     99.14018832	     69.17864061	     -4.94904932	      0.42863333	    114.74385895	    102.64348166
      3.23000000	    -23.77171932	     -3.26441810	      0.60742934	     -0.35680020	      0.62140701	     -0.51794709	     88.48638394	      8.23305091	      1.25084821	     92.06719094	      1.60687561	     27.49249804	    -18.95778107	     -7.49999987	     92.25177277	    -28.99364601	      7.24416260	     84.32067010	      1.47167332	     21.11494965	     17.64011643	     -7.49999987	    -43.50679856	      8.80673035	      2.77857553	     72.62029205	    -16.31564639	      4.76769614	    128.20731901	     97.86876139	     69.19409692	     -4.86371305	      0.26470473	    115.07803677	    101.36771746
      3.24000000	    -23.75592108	     -3.37422271	      0.59429058	     -0.35678105	      0.62059745	     -0.51838242	     88.56399118	      8.22894899	      1.14194903	     92.21013749	      1.60937050	     27.55559916	    -18.93325401	     -7.49999987	     92.44837048	    -29.08734102	      7.33833800	     84.50419970	      1.47487652	     21.22221345	     17.66789559	     -7.49999987	    -43.56530240	      8.88483730	      2.75917968	     72.40136582	    -16.31385311	      4.58633080	    128.41647450	     97.04307054	     69.20195793	     -4.88658665	      0.17078625	    115.36303307	    100.53989435
      3.25000000	    -23.72910412	     -3.45984072	      0.60432310	     -0.35676662	      0.61987372	     -0.51884660	     88.61421206	      8.23639376	      1.09939520	     92.33433259	      1.61153812	     27.65186783	    -18.99374316	     -7.49999987	     92.62261796	    -29.16079114	      7.37594271	     84.69225304	      1.47815867	     21.22875044	     17.59538955	     -7.49999987	    -43.61673916	      8.93997214	      2.71654011	     72.19155688	    -16.37445154	      4.41683117	    128.60591337	     95.92536316	     69.19647407	     -4.90887607	      0.17248534	    115.77438428	     99.42386662
      3.26000000	    -23.64238946	     -3.56904309	      0.56574744	     -0.35671385	      0.61940856	     -0.51919998	     88.58628882	      8.30113811	      1.02008729	     92.41802883	      1.61299889	     27.51754908	    -19.13418424	     -7.49999987	     92.72268281	    -29.31909881	      7.43315894	     84.86604588	      1.48119192	     21.37046406	     17.88507560	     -7.49999987	    -43.69887475	      8.98552362	      2.70090746	     72.01451285	    -16.34218057	      4.12727335	    128.36947500	     98.75691736	     69.18670039	     -4.89263283	     -0.12377327	    115.61720389	    102.11167268
      3.27000000	    -23.59384605	     -3.53168210	      0.55463013	     -0.35659369	      0.61913127	     -0.51958503	     88.56506855	      8.31295102	      1.12912482	     92.50223725	      1.61446861	     27.81832467	    -18.96920045	     -7.49999987	     92.69886379	    -29.38459979	      7.25250181	     84.96520932	      1.48292265	     21.12542323	     17.22993377	     -7.49999987	    -43.73851227	      8.92658032	      2.56810157	     71.80532461	    -16.27220960	      4.04667682	    128.66806907	     97.72327991	     69.16820762	     -4.94369388	     -0.12645003	    115.96963680	    100.84514879
      3.28000000	    -23.53519499	     -3.82501716	      0.55904619	     -0.35636207	      0.61898078	     -0.52003252	     88.48952231	      8.34660835	      0.84529090	     92.48718236	      1.61420585	     27.66056278	    -19.07769795	     -7.49999987	     92.89244929	    -29.43795732	      7.65004975	     85.07513934	      1.48484129	     21.55776410	     18.05237327	     -7.49999987	    -43.77157056	      9.14647947	      2.76419177	     71.56031379	    -16.40365451	      3.73486317	    128.87763640	     96.35675835	     69.07864169	     -4.69343336	     -0.25061911	    116.30968525	     99.54136873
      3.29000000	    -23.43642033	     -3.87665575	      0.56151070	     -0.35616557	      0.61902767	     -0.52041976	     88.34871788	      8.37641179	      0.85333265	     92.48316786	      1.61413578	     27.68411924	    -19.19581336	     -7.49999987	     92.84064005	    -29.49072533	      7.64607033	     85.13833009	      1.48594418	     21.58483487	     18.03974153	     -7.49999987	    -43.81360394	      9.17981866	      2.70703411	     71.36920274	    -16.43451887	      3.52045973	    128.76466511	     99.21100115	     69.00205352	     -4.66875131	     -0.58277407	    116.28065128	    101.98486164
